<?xml version="1.0" standalone="no"?>
<!DOCTYPE svg PUBLIC "-//W3C//DTD SVG 20010904//EN"
 "http://www.w3.org/TR/2001/REC-SVG-20010904/DTD/svg10.dtd">
<svg version="1.0" xmlns="http://www.w3.org/2000/svg"
 width="64.000000pt" height="64.000000pt" viewBox="0 0 64.000000 64.000000"
 preserveAspectRatio="xMidYMid meet" style="background-color:white;">
 <rect width="100%" height="100%" fill="white" />
<g transform="translate(0.000000,64.000000) scale(0.100000,-0.100000)"
fill="#000000" stroke="none">
<path d="M208 613 c-79 -84 -120 -235 -101 -369 12 -83 57 -185 98 -224 35
-33 43 -18 11 21 -127 150 -128 383 -3 542 28 36 30 37 48 21 19 -17 18 -18
-8 -52 -50 -66 -73 -138 -73 -234 0 -103 23 -175 74 -234 l34 -39 31 29 c35
34 37 39 17 59 -81 81 -87 259 -12 352 24 29 25 29 43 12 15 -14 15 -20 5 -35
-51 -71 -63 -177 -26 -246 31 -60 47 -66 83 -32 l29 28 -19 32 c-23 38 -25 96
-4 137 14 27 17 28 31 14 12 -11 14 -25 10 -51 -9 -44 0 -74 22 -74 12 0 13 3
4 12 -16 16 -15 48 3 68 13 15 12 20 -13 48 -36 40 -47 40 -72 0 -24 -39 -26
-111 -5 -151 13 -25 13 -31 1 -43 -22 -21 -34 -17 -53 19 -34 64 -18 180 32
231 18 18 11 39 -24 70 -21 19 -22 19 -44 -3 -43 -39 -71 -110 -75 -188 -5
-80 8 -132 46 -182 19 -26 23 -38 15 -50 -18 -28 -37 -18 -69 36 -74 124 -65
274 22 394 19 26 34 51 34 56 0 12 -43 53 -56 53 -6 0 -22 -12 -36 -27z"/>
</g>
</svg>
